<svg width="19" height="18" viewBox="0 0 19 18" fill="none" xmlns="http://www.w3.org/2000/svg">
<path d="M18.4783 9.72085C19.1739 8.9677 19.1739 7.74659 18.4783 6.99345L12.5408 0.564875C11.8452 -0.188272 10.7174 -0.188312 10.0217 0.564875L0.521711 10.8506C-0.173904 11.6037 -0.173904 12.8248 0.521711 13.578L4.08421 17.4351C4.41827 17.7968 4.87135 18 5.34377 18H18.5547C18.8006 18 19 17.7841 19 17.5179V15.9107C19 15.6445 18.8006 15.4286 18.5547 15.4286H13.2066L18.4783 9.72085V9.72085ZM7.248 7.20458L12.3458 12.724L9.84784 15.4286H5.58973L2.62098 12.2143L7.248 7.20458V7.20458Z" fill="#EDEDED"/>
</svg>
