<svg width="15" height="25" viewBox="0 0 15 25" fill="none" xmlns="http://www.w3.org/2000/svg">
<path d="M10.2131 11.3965L4.93963 9.85352C4.32928 9.67773 3.90447 9.10645 3.90447 8.47168C3.90447 7.67578 4.549 7.03125 5.3449 7.03125H8.58221C9.17791 7.03125 9.76385 7.21191 10.2521 7.54395C10.55 7.74414 10.9504 7.69531 11.2043 7.44629L12.9035 5.78613C13.2502 5.44922 13.2013 4.8877 12.8156 4.58984C11.6193 3.65234 10.1252 3.12988 8.59197 3.125V0.78125C8.59197 0.351562 8.24041 0 7.81072 0H6.24822C5.81853 0 5.46697 0.351562 5.46697 0.78125V3.125H5.3449C2.23455 3.125 -0.265451 5.7959 0.0226352 8.96484C0.227713 11.2158 1.94646 13.0469 4.11443 13.6816L9.11931 15.1465C9.72967 15.3271 10.1545 15.8936 10.1545 16.5283C10.1545 17.3242 9.50994 17.9688 8.71404 17.9688H5.47674C4.88103 17.9688 4.2951 17.7881 3.80681 17.4561C3.50896 17.2559 3.10857 17.3047 2.85467 17.5537L1.15545 19.2139C0.808768 19.5508 0.857596 20.1123 1.24334 20.4102C2.43963 21.3477 3.93377 21.8701 5.46697 21.875V24.2188C5.46697 24.6484 5.81853 25 6.24822 25H7.81072C8.24041 25 8.59197 24.6484 8.59197 24.2188V21.8652C10.8674 21.8213 13.0012 20.4688 13.7531 18.3154C14.8029 15.3076 13.0402 12.2217 10.2131 11.3965V11.3965Z" fill="#9E9E9E"/>
</svg>
